# xmcd CD database file
#
# Track frame offsets:
#	150
#	18298
#	39566
#	60258
#	83031
#	129382
#	158058
#	176626
#	212105
#	254535
#
# Disc length: 3679 seconds
#
# Revision: 1
# Processed by: cddbd v1.5.2PL0 Copyright (c) Steve Scherf et al.
# Submitted via: CDex 1.51
#
DISCID=7b0e5d0a
DTITLE=Tom Kenyon - Imaginarium
DYEAR=2003
DGENRE=Other
TTITLE0=Imaginarium
TTITLE1=The Conversion Of Dolorosa
TTITLE2=Body Rub
TTITLE3=The Healing Spheres At Madrona Point
TTITLE4=Upon The Indigenous Sea
TTITLE5=An Unexpected Breeze
TTITLE6=The Calling Of The Heru Boat
TTITLE7=Ode To The Electrons
TTITLE8=Ohana Dance For Human And Leviathan
TTITLE9=The Boatman
EXTD=YEAR: 2003
EXTT0=
EXTT1=
EXTT2=
EXTT3=
EXTT4=
EXTT5=
EXTT6=
EXTT7=
EXTT8=
EXTT9=
PLAYORDER=
